# xmcd
# 
# Track frame offsets:
#     150
#     15300
#     25877
#     42765
#     61245
#     69705
#     92890
#     107870
#     126462
#     139552
#     148712
#     162780
#     174190
#     181692
#     192497
#     205025
#     226512
#     242420
#     251647
#     257712
#     268347
#     274737
#     283920
#     292770
#     301047
# 
# Disc length: 4155
# 
# Revision: 23
# Processed by: cddbd v1.5.2PL0 Copyright (c) Steve Scherf et al.
# Submitted via: fre:ac v1.0.31
# 
DISCID=5e103919
DTITLE=Original Soundtrack - Classic Disney Disc 5
DYEAR=1998
DGENRE=Soundtrack
TTITLE0=I'll Make A Man Out Of You [Mulan]
TTITLE1=I Won't Say (I'm In Love) [Hercules]
TTITLE2=God Help The Outcasts [The Hunchback Of Notre Dame]
TTITLE3=If I Can't Love Her [Beauty And The Beast: A Broadway Musical]
TTITLE4=Steady As The Beating Drum [Pocahontas]
TTITLE5=Belle [Beauty And The Beast]
TTITLE6=Strange Things [Toy Story]
TTITLE7=Cruella De Ville [101 Dalmations Live Action]
TTITLE8=Eating The Peach [James And The Giant Peach]
TTITLE9=Seize The Day [Newsies]
TTITLE10=What's This? [Tim Burton's The Nightmare Before Christmas]
TTITLE11=Lavender Blue (Dilly Dilly) [So Dear To My Heart]
TTITLE12=The Rain Rain Rain Came Down Down Down [Winnie The Pooh And The Blustery Day]
TTITLE13=A Step In The Right Direction [Bedknobs And Broomsticks]
TTITLE14=Boo Bop Bopbop Bop (I Love You, Too) [Pete's Dragon]
TTITLE15=Yo Ho (A Pirate's Life For Me) [The Pirates Of The Caribbean]
TTITLE16=My Own Home [The Jungle Book]
TTITLE17=Ev'rybody Wants To Be A Cat [The Aristocats]
TTITLE18=In A World Of My Own [Alice In Wonderland]
TTITLE19=You Belong To My Heart [The Three Cabelleros]
TTITLE20=Humphrey Hop [In The Bag]
TTITLE21=He's A Tramp [Lady And The Tramp]
TTITLE22=Song Of The South [Song Of The South]
TTITLE23=When I See An Elephant Fly [Dumbo]
TTITLE24=I've Got No Strings [Pinocchio]
EXTD=
EXTT0=
EXTT1=
EXTT2=
EXTT3=
EXTT4=
EXTT5=
EXTT6=
EXTT7=
EXTT8=
EXTT9=
EXTT10=
EXTT11=
EXTT12=
EXTT13=
EXTT14=
EXTT15=
EXTT16=
EXTT17=
EXTT18=
EXTT19=
EXTT20=
EXTT21=
EXTT22=
EXTT23=
EXTT24=
PLAYORDER=
